<?xml version="1.0" encoding="utf-8"?>
<!-- Generator: Adobe Illustrator 27.5.0, SVG Export Plug-In . SVG Version: 6.00 Build 0)  -->
<svg version="1.1" id="Layer_1" xmlns="http://www.w3.org/2000/svg" xmlns:xlink="http://www.w3.org/1999/xlink" x="0px" y="0px"
	 viewBox="0 0 60 61" style="enable-background:new 0 0 60 61;" xml:space="preserve">
<style type="text/css">
	.st0{fill:#C0A062;}
	.st1{fill:#FFFFFF;}
</style>
<circle class="st0" cx="30" cy="30.2" r="30"/>
<path class="st1" d="M33.4,28.6h-1.7v-1.7c0-0.4-0.2-0.9-0.5-1.2c-0.3-0.3-0.7-0.5-1.2-0.5c-0.4,0-0.9,0.2-1.2,0.5
	c-0.3,0.3-0.5,0.7-0.5,1.2v1.7h-1.7c-0.4,0-0.9,0.2-1.2,0.5c-0.3,0.3-0.5,0.7-0.5,1.2c0,0.4,0.2,0.9,0.5,1.2
	c0.3,0.3,0.7,0.5,1.2,0.5h1.7v1.7c0,0.4,0.2,0.9,0.5,1.2c0.3,0.3,0.7,0.5,1.2,0.5c0.4,0,0.9-0.2,1.2-0.5c0.3-0.3,0.5-0.7,0.5-1.2
	v-1.7h1.7c0.4,0,0.9-0.2,1.2-0.5c0.3-0.3,0.5-0.7,0.5-1.2c0-0.4-0.2-0.9-0.5-1.2C34.2,28.8,33.8,28.6,33.4,28.6z M43.6,18.6
	c-1.8-1.8-4.1-2.8-6.6-3c-2.5-0.2-5,0.5-7,2c-2.1-1.6-4.8-2.3-7.4-2c-2.6,0.3-5,1.6-6.8,3.6c-1.7,2-2.6,4.6-2.5,7.2
	c0.1,2.6,1.2,5.1,3.1,7l10,10.1c0.9,0.9,2.2,1.5,3.5,1.5c1.3,0,2.6-0.5,3.5-1.5l10-10.1c1-1,1.8-2.1,2.3-3.4c0.5-1.3,0.8-2.6,0.8-4
	c0-1.4-0.2-2.7-0.8-4C45.4,20.7,44.6,19.6,43.6,18.6L43.6,18.6z M41.3,31l-10,10c-0.2,0.2-0.3,0.3-0.5,0.4c-0.2,0.1-0.4,0.1-0.6,0.1
	s-0.4,0-0.6-0.1c-0.2-0.1-0.4-0.2-0.5-0.4l-10-10c-1.3-1.3-2-3.1-2-5c0-1.9,0.7-3.7,2-5c1.3-1.3,3.1-2.1,5-2.1s3.7,0.7,5,2.1
	c0.2,0.2,0.3,0.3,0.5,0.4s0.4,0.1,0.6,0.1s0.4,0,0.6-0.1s0.4-0.2,0.5-0.4c1.3-1.3,3.1-2.1,5-2.1c1.9,0,3.7,0.7,5,2.1
	c1.3,1.3,2.1,3.1,2.1,5C43.3,27.9,42.6,29.7,41.3,31L41.3,31z"/>
</svg>
