<?xml version="1.0" encoding="utf-8"?>
<!-- Generator: Adobe Illustrator 27.5.0, SVG Export Plug-In . SVG Version: 6.00 Build 0)  -->
<svg version="1.1" id="Layer_1" xmlns="http://www.w3.org/2000/svg" xmlns:xlink="http://www.w3.org/1999/xlink" x="0px" y="0px"
	 viewBox="0 0 60 61" style="enable-background:new 0 0 60 61;" xml:space="preserve">
<style type="text/css">
	.st0{fill:#C0A062;}
	.st1{fill:#FFFFFF;}
</style>
<circle class="st0" cx="30" cy="30.2" r="30"/>
<path class="st1" d="M22.5,26.9h1.7c0.4,0,0.9-0.2,1.2-0.5c0.3-0.3,0.5-0.7,0.5-1.2c0-0.4-0.2-0.9-0.5-1.2c-0.3-0.3-0.7-0.5-1.2-0.5
	h-1.7c-0.4,0-0.9,0.2-1.2,0.5c-0.3,0.3-0.5,0.7-0.5,1.2c0,0.4,0.2,0.9,0.5,1.2C21.6,26.7,22.1,26.9,22.5,26.9z M29.2,36.9h-6.7
	c-0.4,0-0.9,0.2-1.2,0.5c-0.3,0.3-0.5,0.7-0.5,1.2s0.2,0.9,0.5,1.2c0.3,0.3,0.7,0.5,1.2,0.5h6.7c0.4,0,0.9-0.2,1.2-0.5
	c0.3-0.3,0.5-0.7,0.5-1.2s-0.2-0.9-0.5-1.2C30,37.1,29.6,36.9,29.2,36.9z M29.2,30.2h-6.7c-0.4,0-0.9,0.2-1.2,0.5
	c-0.3,0.3-0.5,0.7-0.5,1.2c0,0.4,0.2,0.9,0.5,1.2c0.3,0.3,0.7,0.5,1.2,0.5h6.7c0.4,0,0.9-0.2,1.2-0.5c0.3-0.3,0.5-0.7,0.5-1.2
	c0-0.4-0.2-0.9-0.5-1.2C30,30.4,29.6,30.2,29.2,30.2z M40.7,25.9c0.1-0.3,0.2-0.6,0.1-1c-0.1-0.3-0.2-0.6-0.5-0.9l-10-10
	c-0.1-0.1-0.3-0.2-0.5-0.3c0,0-0.1,0-0.2,0l-0.5-0.2H19.2c-1.3,0-2.6,0.5-3.5,1.5c-0.9,0.9-1.5,2.2-1.5,3.5v23.3
	c0,1.3,0.5,2.6,1.5,3.5c0.9,0.9,2.2,1.5,3.5,1.5h10c0.4,0,0.9-0.2,1.2-0.5c0.3-0.3,0.5-0.7,0.5-1.2c0-0.4-0.2-0.9-0.5-1.2
	c-0.3-0.3-0.7-0.5-1.2-0.5h-10c-0.4,0-0.9-0.2-1.2-0.5c-0.3-0.3-0.5-0.7-0.5-1.2V18.6c0-0.4,0.2-0.9,0.5-1.2
	c0.3-0.3,0.7-0.5,1.2-0.5h8.3v5c0,1.3,0.5,2.6,1.5,3.5c0.9,0.9,2.2,1.5,3.5,1.5h6.7c0.3,0,0.7-0.1,0.9-0.3
	C40.4,26.4,40.6,26.2,40.7,25.9L40.7,25.9z M32.5,23.6c-0.4,0-0.9-0.2-1.2-0.5c-0.3-0.3-0.5-0.7-0.5-1.2v-2.6l4.3,4.3H32.5z
	 M44.2,30.2h-8.3c-0.4,0-0.9,0.2-1.2,0.5c-0.3,0.3-0.5,0.7-0.5,1.2v13.3c0,0.3,0.1,0.6,0.2,0.9c0.2,0.3,0.4,0.5,0.6,0.6
	c0.3,0.1,0.6,0.2,0.8,0.2c0.3,0,0.6-0.1,0.8-0.3l3.3-2.2l3.3,2.2c0.2,0.1,0.5,0.2,0.8,0.2c0.3,0,0.6-0.1,0.8-0.2
	c0.3-0.1,0.5-0.3,0.6-0.6c0.2-0.2,0.2-0.5,0.2-0.8V31.9c0-0.4-0.2-0.9-0.5-1.2C45,30.4,44.6,30.2,44.2,30.2z M42.5,42.1l-1.6-1
	c-0.3-0.2-0.6-0.3-0.9-0.3s-0.7,0.1-0.9,0.3l-1.6,1v-8.5h5V42.1z"/>
</svg>
