<?xml version="1.0" encoding="utf-8"?>
<!-- Generator: Adobe Illustrator 27.5.0, SVG Export Plug-In . SVG Version: 6.00 Build 0)  -->
<svg version="1.1" id="Layer_1" xmlns="http://www.w3.org/2000/svg" xmlns:xlink="http://www.w3.org/1999/xlink" x="0px" y="0px"
	 viewBox="0 0 60 61" style="enable-background:new 0 0 60 61;" xml:space="preserve">
<style type="text/css">
	.st0{fill:#C0A062;}
	.st1{fill:#FFFFFF;}
</style>
<circle class="st0" cx="30" cy="30.2" r="30"/>
<path class="st1" d="M46.6,26.3L45,25.4l-15-8.3h-0.2c-0.1,0-0.2-0.1-0.3-0.1h-0.3h-0.3c-0.1,0-0.2,0.1-0.3,0.1h-0.2l-15,8.3
	c-0.3,0.1-0.5,0.4-0.6,0.6c-0.1,0.3-0.2,0.5-0.2,0.8c0,0.3,0.1,0.6,0.2,0.8c0.1,0.3,0.4,0.5,0.6,0.6l4.1,2.3v7.9
	c0,1.3,0.5,2.6,1.5,3.5c0.9,0.9,2.2,1.5,3.5,1.5h13.3c1.3,0,2.6-0.5,3.5-1.5c0.9-0.9,1.5-2.2,1.5-3.5v-7.9l3.3-1.9v4.8
	c0,0.4,0.2,0.9,0.5,1.2c0.3,0.3,0.7,0.5,1.2,0.5c0.4,0,0.9-0.2,1.2-0.5c0.3-0.3,0.5-0.7,0.5-1.2v-5.7c0-0.3-0.1-0.6-0.2-0.8
	C47.1,26.7,46.9,26.5,46.6,26.3L46.6,26.3z M37.5,38.5c0,0.4-0.2,0.9-0.5,1.2c-0.3,0.3-0.7,0.5-1.2,0.5H22.5c-0.4,0-0.9-0.2-1.2-0.5
	c-0.3-0.3-0.5-0.7-0.5-1.2v-6l7.5,4.2l0.2,0.1h0.1c0.1,0,0.3,0,0.4,0c0.1,0,0.3,0,0.4,0h0.2c0.1,0,0.2-0.1,0.2-0.1l7.5-4.2V38.5z
	 M29.2,33.3l-11.6-6.4l11.6-6.4l11.6,6.4L29.2,33.3z"/>
</svg>
